# xmcd
#
# Track frame offsets: 
#        155
#        10777
#        23687
#        33222
#        44322
#        56997
#        67260
#        77307
#        90480
#        101972
#
# Disc length: 1546 seconds
#
# Revision: 0
# Processed by: cddbd v1.4PL0 Copyright (c) Steve Scherf et al.
# Submitted via: ExactAudioCopy v0.90b3
#
DISCID=7606080a
DTITLE=Jim Reeves - At His Best
DYEAR=1900
DGENRE=Country
TTITLE0=He'll Have To Go
TTITLE1=Four Walls
TTITLE2=Billy Bayou
TTITLE3=I Guess I'm Crazy
TTITLE4=Blue Side Of Lonesome
TTITLE5=Is It Really Over
TTITLE6=I Won't Come In While He's There
TTITLE7=Distant Drums
TTITLE8=Adios Amigos
TTITLE9=This Is It
EXTD=
EXTT0=
EXTT1=
EXTT2=
EXTT3=
EXTT4=
EXTT5=
EXTT6=
EXTT7=
EXTT8=
EXTT9=
PLAYORDER=
